# xmcd
#
# Track frame offsets:
#	150
#	12928
#	26348
#	39108
#	52708
#	65173
#	79915
#	91965
#	105675
#	117280
#	130770
#	144725
#	158165
#	173083
#	186795
#	201415
#
# Disc length: 2866 seconds
#
# Revision: 2
# Processed by: cddbd v1.5.2PL0 Copyright (c) Steve Scherf et al.
# Submitted via: audiograbber 1.83.01
#
DISCID=cf0b3010
DTITLE=Peter Alexander - Verliebte Musik
DYEAR=1900
DGENRE=
TTITLE0=Verliebte Musik
TTITLE1=Ich küsse ihre Hand Madame
TTITLE2=Der alte Liebesbrief
TTITLE3=Ich lade dich ein in die kleine Taverne
TTITLE4=Ich habe' nach Dir soviel Heimweh
TTITLE5=Bella Bella Donna
TTITLE6=Wenn ich dich seh'
TTITLE7=Weil du schön bist
TTITLE8=So ein kleines bißchen Liebe
TTITLE9=Braucht dein Herz keinen Freund
TTITLE10=Ich lieb' dich so wie du bist
TTITLE11=Du bist die Richtige
TTITLE12=Ich hab' vor'm Küssen immer Lampenfieber
TTITLE13=Addio, Donna Grazia
TTITLE14=Es war in Napoli vor vielen vielen Jahren
TTITLE15=Es ist ein Abschied nur für heut'
EXTD=
EXTT0=
EXTT1=
EXTT2=
EXTT3=
EXTT4=
EXTT5=
EXTT6=
EXTT7=
EXTT8=
EXTT9=
EXTT10=
EXTT11=
EXTT12=
EXTT13=
EXTT14=
EXTT15=
PLAYORDER=
